<svg xmlns="http://www.w3.org/2000/svg" width="697.266" height="697.266" viewBox="0 0 522.949 522.949">
  <path fill="#d7e1f2" d="M179.766 408.555h163.418v98.05H179.766zm0 0"/>
  <path fill="#e4edfb" d="M375.871 522.95H147.078c-9.02 0-16.34-7.321-16.34-16.345 0-9.02 7.32-16.34 16.34-16.34h228.793c9.02 0 16.34 7.32 16.34 16.34 0 9.024-7.32 16.344-16.34 16.344zm0 0"/>
  <path fill="#F57C26" d="M522.95 32.684C522.95 14.625 508.323 0 490.265 0H32.684C14.625 0 0 14.625 0 32.684v326.843h522.95zm0 0"/>
  <path fill="#e4edfb" d="M0 343.184v65.37c0 18.06 14.625 32.684 32.684 32.684h457.582c18.058 0 32.683-14.625 32.683-32.683v-65.371zm0 0"/>
  <g fill="#fff">
    <path d="M140.313 245.133l-65.368-65.367 65.368-65.371c6.375-6.372 16.734-6.372 23.109 0 6.375 6.375 6.375 16.734 0 23.109l-42.262 42.262 42.262 42.257c6.375 6.375 6.375 16.735 0 23.11s-16.734 6.375-23.11 0zm0 0M359.527 245.133c-6.375-6.375-6.375-16.735 0-23.11l42.262-42.257-42.262-42.262c-6.375-6.375-6.375-16.734 0-23.11 6.375-6.37 16.735-6.37 23.11 0l65.367 65.372-65.367 65.367c-6.375 6.375-16.735 6.375-23.11 0zm0 0M228.79 245.133c-8.071-4.035-11.356-13.86-7.321-21.93L272.227 121.7c4.039-8.07 13.859-11.34 21.933-7.304 8.07 4.039 11.34 13.859 7.305 21.914l-50.758 101.504c-4.023 8.09-13.844 11.355-21.918 7.32zm0 0"/>
  </g>
  <path fill="#77959e" d="M245.133 375.871h32.683v32.684h-32.683zm0 0"/>
</svg>